/vscmnt/brussel_pixiu_data/_data_brussel/112/vsc11236/PredSimResults/SUBJ07mtu3D/weighted-LRposFixed/expIG/worker_03.mot
version=1
nRows=7
nColumns=50
inDegrees=yes
endheader
                time	         pelvis_tilt	         pelvis_list	     pelvis_rotation	           pelvis_tx	           pelvis_ty	           pelvis_tz	       hip_flexion_r	     hip_adduction_r	      hip_rotation_r	        knee_angle_r	       ankle_angle_r	         mtp_angle_r	       hip_flexion_l	     hip_adduction_l	      hip_rotation_l	        knee_angle_l	       ankle_angle_l	         mtp_angle_l	    lumbar_extension	      lumbar_bending	     lumbar_rotation	 ercspn_r/activation	 intobl_r/activation	 extobl_r/activation	    abd_r/activation	    add_r/activation	hamstrings_r/activation	bifemsh_r/activation	glut_max_r/activation	iliopsoas_r/activation	rect_fem_r/activation	  vasti_r/activation	gastroc_r/activation	 soleus_r/activation	tib_ant_r/activation	 ercspn_l/activation	 intobl_l/activation	 extobl_l/activation	    abd_l/activation	    add_l/activation	hamstrings_l/activation	bifemsh_l/activation	glut_max_l/activation	iliopsoas_l/activation	rect_fem_l/activation	  vasti_l/activation	gastroc_l/activation	 soleus_l/activation	tib_ant_l/activation	
          1.71227598	         -6.85791642	          4.19117217	        -10.19506104	          2.12322221	          0.84228245	          0.01397928	        -12.85483097	         -4.96122161	          5.20363317	         -7.56287857	          7.99705140	         29.34334965	         32.00696425	         -0.38253791	         -7.90602697	         -3.84197736	          7.46964378	          0.24960455	         -6.00147086	         -2.27132536	          3.57618510	          0.04412974	          0.00999999	          0.00999999	          0.03384342	          0.05681402	          0.02843383	          0.13962739	          0.02843381	          0.40520195	          0.00999999	          0.01080836	          0.27454599	          0.26914875	          0.02007042	          0.09838211	          0.18733893	          0.02843381	          0.01807288	          0.14926929	          0.06564566	          0.19577739	          0.00999999	          0.08345425	          0.00999999	          0.00999999	          0.01820558	          0.00999999	          0.28026801	
          1.72369115	         -6.92702783	          4.04730431	        -10.10692170	          2.14005327	          0.84035840	          0.01375693	        -12.88460865	         -4.83303945	          4.68764733	         -9.54915523	          7.19718887	         31.12536565	         32.18670793	         -0.24494732	         -7.24160170	         -5.88582180	          7.11133470	          0.24237725	         -5.80776188	         -2.74811357	          3.62644834	          0.10359350	          0.00999999	          0.00999999	          0.02843381	          0.10840082	          0.02388890	          0.11730901	          0.02388888	          0.41632837	          0.00999999	          0.01000000	          0.23066190	          0.24887941	          0.01686232	          0.08265648	          0.16055506	          0.02388888	          0.01518407	          0.20197644	          0.06040302	          0.16448386	          0.08674865	          0.07011472	          0.00999999	          0.00999999	          0.02388888	          0.01894313	          0.28718336	
          1.73510632	         -6.97705098	          3.90298871	         -9.95456884	          2.15717579	          0.83861807	          0.01349707	        -12.71509322	         -4.68435710	          4.11161332	        -11.97201332	          6.27960203	         32.80346350	         32.14517076	         -0.11814695	         -6.56901429	         -7.76332094	          6.74524100	          0.23303172	         -5.60007905	         -3.24549741	          3.64929932	          0.13342677	          0.00999999	          0.00999999	          0.02388888	          0.09904738	          0.02007044	          0.09855806	          0.02007042	          0.40050290	          0.00999999	          0.00999999	          0.19379234	          0.21467036	          0.01416701	          0.07890003	          0.13489155	          0.02007042	          0.08565341	          0.19884905	          0.06360037	          0.13819236	          0.10762679	          0.05890741	          0.00999999	          0.00999999	          0.02007042	          0.01591522	          0.33669948	
          1.74652150	         -7.01062341	          3.75407907	         -9.74093890	          2.17434447	          0.83724970	          0.01313524	        -12.27072396	         -4.51924192	          3.49029205	        -14.91214090	          5.20665454	         34.22681871	         31.92359754	          0.03437140	         -5.96349266	         -9.32862810	          6.29170158	          0.21587213	         -5.40308070	         -3.74450076	          3.64637309	          0.16696838	          0.00999999	          0.00999999	          0.02007042	          0.10843177	          0.01686233	          0.08280430	          0.01686232	          0.37662207	          0.00999999	          0.00999999	          0.16281611	          0.18035693	          0.01190252	          0.08975120	          0.11333016	          0.01686232	          0.13205529	          0.20863272	          0.05512607	          0.11610336	          0.15221703	          0.04949151	          0.00999999	          0.00999999	          0.01686232	          0.01337129	          0.36036668	
          1.75793667	         -7.02803478	          3.60866825	         -9.47166958	          2.19133593	          0.83640440	          0.01267716	        -11.50711964	         -4.35384071	          2.82432177	        -18.39809516	          3.98924430	         35.11367204	         31.62696065	          0.21311659	         -5.43225051	        -10.78769288	          5.96171990	          0.20150414	         -5.23471696	         -4.25204173	          3.61608247	          0.19857453	          0.00999999	          0.00999999	          0.01686232	          0.11384999	          0.01416702	          0.06956866	          0.01416701	          0.32728923	          0.00999999	          0.00999999	          0.13679119	          0.15152825	          0.00999999	          0.08650743	          0.09521519	          0.01416701	          0.15969876	          0.20231830	          0.04693242	          0.09754512	          0.17304632	          0.04158067	          0.00999999	          0.03337341	          0.01416701	          0.01123399	          0.37320590	
          1.76935184	         -7.03053059	          3.46667928	         -9.14895354	          2.20801036	          0.83620747	          0.01214197	        -10.41686566	         -4.19992339	          2.11117650	        -22.39354447	          2.59986844	         35.21072285	         31.28971456	          0.40638669	         -4.97604148	        -12.17625340	          5.75577718	          0.18649005	         -5.10410771	         -4.76530138	          3.55721311	          0.22085055	          0.00999999	          0.00999999	          0.01416701	          0.13253065	          0.01190253	          0.05844864	          0.01190252	          0.27497453	          0.00999999	          0.00999999	          0.11492616	          0.12730761	          0.00999999	          0.07267987	          0.07999577	          0.01190252	          0.16721655	          0.17609445	          0.04804304	          0.08195328	          0.16580628	          0.03493431	          0.00999999	          0.12383116	          0.01190252	          0.00999999	          0.38213663	
          1.78076702	         -7.02180105	          3.31577689	         -8.77137033	          2.22430761	          0.83677461	          0.01155969	         -9.03373998	         -4.05410761	          1.36547142	        -26.74540231	          0.83074273	         34.54877182	         30.85283078	          0.60249732	         -4.57582408	        -13.37382158	          5.69210983	          0.17190242	         -5.01385378	         -5.26814855	          3.46862913	          0.22155726	          0.00999999	          0.00999999	          0.01190252	          0.14598670	          0.01000000	          0.05492070	          0.00999999	          0.23102194	          0.00999999	          0.00999999	          0.09655608	          0.10695845	          0.00999999	          0.06106255	          0.06720905	          0.00999999	          0.16956662	          0.14794709	          0.04899996	          0.06885367	          0.14302433	          0.02935033	          0.00999999	          0.19079204	          0.00999999	          0.00999999	          0.37507677	
